# xmcd
# 
# Track frame offsets:
#     150
#     49749
#     83249
#     103760
#     179476
#     213065
#     236501
# 
# Disc length: 4010
# 
# Revision: 0
# Processed by: cddbd v1.5.2PL0 Copyright (c) Steve Scherf et al.
# Submitted via: fre:ac v1.0.17
# 
DISCID=560fa807
DTITLE=Roald Dahl - Karlik a tovarna na cokoladu 3
DYEAR=0
DGENRE=Audiobook
TTITLE0=Plavba po cokoladove rece
TTITLE1=Vynalezaci laborator - vecne zavrihubky a vlasove nudle
TTITLE2=Podivuhodny zvykaci automat
TTITLE3=Sbohem Fialinko
TTITLE4=A jde se dale
TTITLE5=Vykulene cukrkandlove krychle
TTITLE6=Veruncino dobrodruzstvi v Orechovem sale
EXTD=
EXTT0=
EXTT1=
EXTT2=
EXTT3=
EXTT4=
EXTT5=
EXTT6=
PLAYORDER=
